<?xml version="1.0" encoding="utf-8"?><!DOCTYPE svg PUBLIC "-//W3C//DTD SVG 1.1//EN" "http://www.w3.org/Graphics/SVG/1.1/DTD/svg11.dtd"><svg version="1.1" id="Contours" xmlns="http://www.w3.org/2000/svg" xmlns:xlink="http://www.w3.org/1999/xlink" x="0px" y="0px" width="676.813110px" height="676.813110px" viewBox="0.000015 0.000024 676.813110 558.016357" enable-background="new 0 0 676.813110 676.813110" xml:space="preserve" stroke="black" fill="none" stroke-linecap='round' stroke-linejoin='round'><path class="selected"  fill="#000000" opacity="1.000000" stroke="none" 
 	d="
M545.895188 380.198035 C528.442307 388.887000 522.664597 403.902015 520.654587 421.764197 C519.731980 429.961585 520.429489 437.586097 523.029953 445.087073 C524.226364 448.538001 526.918259 451.458655 528.842209 454.673621 C529.952317 456.528846 530.883469 458.491370 531.895188 460.405555 C529.671311 461.336463 527.453537 463.034217 525.222336 463.051917 C518.977951 463.101111 513.869431 465.003821 509.203904 469.264319 C500.055222 477.618811 502.963303 489.328772 513.297287 495.170203 C524.856613 501.704383 537.297043 505.440833 550.636399 505.111976 C558.871384 504.909095 567.079880 503.758826 575.314987 503.295203 C576.805100 503.211341 578.366623 504.393226 579.895188 504.990882 C578.614182 507.393226 577.939011 510.960486 575.947312 511.996253 C567.349778 516.467933 558.625901 520.972937 549.470261 524.039222 C529.383469 530.766639 509.120896 537.041419 488.703049 542.678992 C477.670212 545.725379 466.209397 547.324500 454.871262 549.136023 C440.741135 551.393958 426.553025 553.308753 412.360154 555.140906 C407.043869 555.827063 401.648117 556.029822 396.281296 556.170325 C368.559616 556.896643 340.835923 557.993445 313.112168 558.016272 C297.694199 558.028846 282.256150 556.418738 266.862046 555.125281 C255.383652 554.160682 243.906601 552.880164 232.528366 551.103431 C220.263169 549.188392 208.047898 546.827796 195.929428 544.128821 C177.665573 540.061316 159.342026 536.111121 141.339402 531.057898 C116.199448 524.001502 92.029404 514.267615 68.780503 502.263221 C60.151963 497.807898 53.488205 492.196692 49.007370 483.091956 C38.283493 461.301673 29.328720 438.832801 22.148117 415.722449 C17.213242 399.839637 13.521042 383.531897 10.033676 367.251380 C7.644211 356.096717 6.298630 344.693274 4.962754 333.344886 C3.344651 319.597571 1.566330 305.816443 1.043808 292.005042 C0.167160 268.830848 -0.132461 245.618323 0.052170 222.427649 C0.140427 211.334937 1.344040 200.170996 3.024765 189.189673 C5.524582 172.856177 8.458725 156.559241 12.029221 140.428565 C15.045090 126.803626 19.038681 113.381324 22.975937 99.979895 C24.925583 93.343604 27.293991 86.753028 30.251023 80.510413 C33.563156 73.518103 40.964279 70.917517 47.122666 67.306922 C57.124070 61.443335 67.335923 55.856849 77.814011 50.904517 C101.988449 39.478736 126.832810 29.734107 152.833725 23.210120 C170.355820 18.813636 187.840927 14.235450 205.471726 10.320044 C214.598496 8.293128 223.990769 7.409705 233.290757 6.226600 C247.252793 4.450476 261.224167 2.722205 275.221543 1.260230 C281.878891 0.564978 288.603806 0.283851 295.300644 0.243995 C316.299424 0.119056 337.315110 -0.296960 358.293747 0.365210 C373.268235 0.837928 388.202805 2.772681 403.137619 4.234778 C411.243332 5.028357 419.351242 5.957129 427.389206 7.252478 C440.621384 9.385047 453.863205 11.550330 466.979782 14.283118 C481.176926 17.240943 495.468430 20.108191 509.301682 24.368811 C532.152512 31.406714 555.161667 38.349707 577.183762 47.538184 C598.219284 56.315039 618.366623 67.400977 638.233322 78.656348 C642.578904 81.118445 644.572190 88.394507 646.807907 93.801184 C655.180710 114.049903 660.398728 135.298072 665.562790 156.511206 C667.984299 166.457923 669.385910 176.675940 670.838181 186.829871 C672.737107 200.105933 675.049729 213.399939 675.706467 226.758948 C676.746994 247.918982 676.949753 269.143103 676.737839 290.332434 C676.625290 301.593543 675.298386 312.892249 673.806321 324.078772 C671.183152 343.745887 668.706711 363.460608 663.039719 382.589637 C659.517014 394.481116 656.428879 406.504187 652.735154 418.340003 C652.124314 420.297278 649.029709 423.181434 647.728318 422.877112 C644.765793 422.184363 644.894211 419.626624 645.643601 416.348548 C646.897629 410.863807 646.998825 404.997351 646.760178 399.326331 C646.560593 394.578284 641.958420 389.344275 638.209641 389.316321 C632.813645 389.275916 628.746750 392.636512 626.007614 396.848914 C622.743821 401.868445 618.823777 406.982093 621.704758 413.869788 C622.075974 414.757605 620.113083 417.144202 618.718308 418.001990 C618.126511 418.365882 615.669724 416.888465 614.985642 415.710608 C611.408127 409.551795 607.408615 403.876502 601.225876 399.996985 C595.182175 396.204505 590.647141 398.470740 586.973557 401.753211 C583.954026 404.451087 581.637863 407.924964 578.705490 410.737464 C577.544236 411.851233 575.560227 412.107093 573.950730 412.753577 C573.287400 410.713172 572.184128 408.701209 572.050095 406.626624 C571.745407 401.912024 573.271897 396.626502 571.640671 392.535437 C566.793381 380.377356 558.373581 376.782142 545.895188 380.198035 M661.895188 175.698035 C661.228562 173.136939 660.545090 170.580054 659.897995 168.014075 C655.559372 150.812171 651.350144 133.576453 646.839524 116.419898 C644.836106 108.800513 642.289475 101.319434 639.771042 93.849158 C639.583542 93.293250 637.386277 92.819129 636.554612 93.214576 C635.278366 93.821326 634.300095 95.150855 633.329026 96.287879 C627.764572 102.803931 622.804123 109.957801 616.585739 115.768470 C602.918381 128.539893 589.015549 141.126502 574.458420 152.857398 C562.686325 162.344092 550.099411 170.910071 537.356369 179.076819 C524.021042 187.623023 510.370774 195.791053 496.308640 203.061438 C478.379563 212.331214 459.869309 220.472754 441.672165 229.230445 C434.973679 232.454078 426.765427 233.596473 423.570359 241.952063 C422.858811 243.812720 421.455124 245.400061 420.448044 247.157874 C416.632004 253.818274 411.490036 260.455359 413.140915 268.475013 C414.483811 274.999549 417.834397 281.149695 420.581711 287.338538 C427.712937 303.402991 426.725510 318.837195 413.379929 332.303992 C405.647141 340.106971 396.468308 345.124793 386.430954 349.379432 C370.989670 355.924842 354.834336 356.340735 338.876755 354.852820 C325.542649 353.609778 313.283921 347.745276 302.371323 339.361121 C295.953110 334.429847 289.069443 329.825232 281.778305 326.378699 C272.340012 321.917273 262.567795 325.200232 253.076340 327.539588 C240.150376 330.725501 227.584763 335.449256 213.733139 333.348548 C204.674546 331.974646 189.347092 319.996741 186.856797 311.236487 C183.739792 300.271399 184.529160 289.480994 187.942246 278.815223 C189.810715 272.976355 190.670822 267.667395 185.319504 262.976233 C183.363510 261.261512 182.232407 258.624060 180.648117 256.464026 C171.739121 244.317237 166.733811 230.955664 166.810898 215.662513 C166.874253 203.102332 168.253220 190.869727 172.525132 179.001502 C173.417343 176.522681 173.492600 174.354895 170.165573 172.753089 C166.102036 170.796668 162.594590 167.706397 158.780625 165.207251 C128.505844 145.368811 98.230515 125.531226 67.920517 105.746741 C58.754868 99.763892 49.462448 93.975684 40.264328 88.042212 C37.270981 86.111243 35.394577 87.061866 34.446152 90.172461 C28.895859 108.375708 22.618515 126.406592 18.144455 144.873145 C14.575180 159.605567 12.983017 174.843726 10.970627 189.918433 C9.271103 202.649268 7.373947 215.449073 7.094162 228.251807 C6.667832 247.761878 7.282517 267.310950 7.999619 286.823523 C8.432297 298.595496 9.557846 310.370887 10.984604 322.070105 C12.596543 335.287513 14.307114 348.544471 17.035813 361.561805 C20.935410 380.164954 24.926987 398.831946 30.465683 416.987586 C37.800766 441.031897 46.748093 464.579627 59.641159 486.361853 C60.725754 488.194373 62.252304 490.121375 64.062302 491.106604 C71.654709 495.239173 79.328354 499.255164 87.163681 502.902747 C108.205246 512.698035 130.097763 520.030677 152.417404 526.466590 C179.752976 534.348914 207.565476 539.636756 235.561081 544.062171 C250.915573 546.489173 266.463181 547.850379 281.971299 549.102942 C295.823838 550.221717 309.745896 551.150184 323.629990 551.058265 C346.521592 550.906653 369.408310 549.897498 392.294724 549.173743 C397.661179 549.004065 403.054367 548.816932 408.372605 548.143226 C422.896042 546.302527 437.421189 544.418860 451.879196 542.132117 C464.785324 540.090735 477.767136 538.143470 490.417649 534.967933 C506.165451 531.014808 521.613205 525.862464 537.178391 521.187537 C542.507370 519.587073 547.845017 517.991370 553.079392 516.116126 C554.534226 515.594764 555.632981 514.079749 556.895188 513.020545 C555.571946 512.746375 554.260056 512.332557 552.923264 512.223182 C548.067063 511.826331 543.185837 511.686194 538.344284 511.167273 C526.518601 509.900428 515.555222 506.049842 505.851853 499.146766 C499.407639 494.562537 495.342087 487.792640 496.148484 480.082190 C497.235642 469.684363 503.612717 460.167273 516.039963 457.248816 C518.823166 456.595130 519.582199 455.668128 518.214402 452.966101 C512.519089 441.716346 511.908493 429.912391 513.792404 417.574866 C516.120163 402.330603 520.863816 388.539832 533.737717 378.929480 C539.141281 374.895667 545.086716 371.694129 552.020676 371.222449 C565.009690 370.339026 576.976853 381.059729 579.934128 393.974280 C580.194992 395.113196 581.004196 396.126380 581.558640 397.198035 C582.465256 396.570350 583.298386 395.771277 584.291550 395.346228 C587.688034 393.892615 591.032639 391.936072 594.594162 391.329139 C602.200119 390.032996 607.686936 394.424842 612.626511 399.476111 C614.279831 401.166785 614.600998 401.079383 616.048752 398.889197 C619.054245 394.342444 622.353073 389.650184 626.555954 386.305335 C635.255417 379.381629 643.849411 380.923255 649.892868 388.907142 C650.966599 390.325476 652.009323 391.767249 653.066330 393.198035 C653.675949 391.181556 654.328415 389.176551 654.869553 387.142005 C655.035202 386.519446 654.736130 385.768470 654.918137 385.155921 C661.089279 364.388953 664.058396 342.993079 666.743576 321.607459 C668.541306 307.290076 669.303147 292.804236 669.761277 278.369422 C670.105271 267.530066 669.364060 256.645667 668.856247 245.793067 C668.369797 235.395179 667.887375 224.978553 666.811936 214.631568 C665.494187 201.953650 663.561814 189.339637 661.895188 175.698035 M617.395188 75.198035 C604.131150 68.600684 591.199875 61.192054 577.529221 55.586280 C553.966355 45.924231 529.941452 37.536353 505.281906 30.799353 C481.839157 24.394690 458.116501 19.605933 434.271897 15.313269 C421.415207 12.998694 408.379441 11.506446 395.363816 10.291968 C380.319138 8.888099 365.217636 7.570655 350.123154 7.333350 C321.849839 6.888831 293.551804 6.644996 265.379929 10.144324 C254.670945 11.474524 243.818833 11.740699 233.154343 13.318335 C220.880417 15.134009 208.649399 17.468421 196.566147 20.290259 C178.088120 24.605506 159.523117 28.792151 141.423691 34.413428 C124.537949 39.657874 107.877060 45.954322 91.733200 53.166602 C75.817551 60.276954 60.640549 69.052771 45.219590 77.248572 C41.865952 79.030921 41.977097 80.384864 44.848374 82.205909 C58.179795 90.661048 71.569138 99.027747 84.798325 107.640296 C113.816635 126.532080 142.845505 145.411414 171.611008 164.682715 C175.681259 167.409461 177.609909 167.093299 179.894760 163.434790 C189.495163 148.062842 202.694504 142.010596 221.550461 146.944739 C228.264817 148.701697 235.836289 148.365943 242.848069 147.545935 C255.556809 146.059729 262.781113 136.460486 269.891098 127.110022 C276.543625 118.361304 283.767868 110.137122 292.834946 103.819861 C303.683274 96.261451 315.752976 92.974036 328.906235 95.255774 C341.225022 97.392859 351.559189 112.235205 351.970871 126.958533 C352.233628 136.358252 353.391098 145.729712 353.843064 155.128455 C354.195542 162.457923 360.893174 167.833167 367.718857 167.285498 C376.383225 166.590430 385.108811 166.697242 393.789597 166.159705 C407.347458 165.320227 419.633713 168.666358 430.179489 177.255957 C437.054612 182.855933 441.503708 189.916602 441.982590 199.255713 C442.407639 207.542151 439.169113 214.598731 435.886887 221.767920 C435.530075 222.547156 435.756760 223.593360 435.712937 224.515784 C436.313767 224.409888 436.972458 224.428077 437.506882 224.179419 C445.610764 220.408179 453.721604 216.650428 461.785569 212.795081 C493.665940 197.553382 524.746140 180.827002 553.353928 160.007361 C568.006150 149.344031 582.316330 138.005896 595.544724 125.649146 C608.335007 113.701636 619.438767 99.960975 631.515061 87.227698 C634.198899 84.397864 631.871384 83.325171 630.410691 82.346351 C626.544724 79.755713 622.418137 77.554297 617.395188 75.198035 M349.895188 189.698035 C344.898911 177.959021 332.437363 176.497351 321.648178 183.256385 C313.810593 188.166358 306.899094 194.641272 299.952439 200.841590 C297.373154 203.143653 296.291245 203.233069 293.838974 200.783728 C283.214096 190.171790 271.590317 181.283728 256.315415 177.997901 C239.857407 174.457618 229.112778 183.544471 227.045822 198.340979 C225.034043 212.742102 228.808335 226.568641 235.002121 239.439246 C245.463974 261.178870 260.156784 279.492835 280.778855 292.643958 C286.550522 296.324744 291.893784 296.778601 298.230149 293.565223 C307.168259 289.032386 314.487168 282.918738 321.223984 275.558753 C333.195359 262.479895 341.659104 247.402747 347.492234 230.917395 C352.142990 217.773658 355.654526 204.206763 349.895188 189.698035 z"/><path class="selected"  fill="#000000" opacity="1.000000" stroke="none" 
 	d="
M304.645188 283.948035 C298.600693 287.681678 293.259446 293.249305 285.594529 289.301795 C281.719773 287.306311 277.951279 284.947181 274.534775 282.246253 C259.750779 270.558509 248.686142 255.786414 240.353562 239.038855 C234.210556 226.692115 230.408554 213.547339 231.979416 199.573829 C233.508713 185.970984 242.718613 179.788245 255.930710 182.788733 C270.419785 186.079261 281.456772 195.084327 291.429734 205.481910 C292.487717 206.584876 292.079819 209.423560 291.789170 211.373023 C291.599411 212.644934 290.101670 213.681372 289.727707 214.978370 C289.400559 216.113013 289.824631 217.464209 289.916916 218.719764 C290.957016 218.331885 292.340744 218.244361 292.983567 217.509070 C298.730271 210.935096 303.997666 203.904395 310.100205 197.689734 C316.069809 191.610267 322.952622 186.661536 331.703354 184.783973 C337.779770 183.480140 343.810959 186.523841 345.920761 192.538001 C349.360520 202.343116 347.604782 211.873816 345.120346 221.548560 C340.707260 238.733496 332.387741 253.953406 321.586228 267.733313 C316.884995 273.730872 310.509995 278.416541 304.645188 283.948035 M304.895188 232.698035 C305.835434 235.304908 306.245102 238.300818 307.817002 240.444434 C312.229538 246.461951 317.436386 246.876746 322.155258 242.500159 C329.980515 235.242286 329.149765 219.924598 323.038254 211.929969 C319.312363 207.056067 313.666245 206.884375 309.403855 211.226111 C303.563889 217.174720 303.176865 224.516272 304.895188 232.698035 M273.895188 236.698035 C273.895188 233.200660 274.284836 229.646827 273.789170 226.221228 C273.260849 222.570105 272.161606 218.936988 270.824448 215.484717 C269.320298 211.601355 265.957749 209.298316 261.942978 209.339942 C257.954514 209.381202 255.780625 212.361304 254.436325 216.091712 C251.872238 223.206946 252.135117 230.329810 254.585007 237.240699 C256.184494 241.752662 258.114060 246.856604 264.102463 247.120154 C270.352341 247.395423 271.821457 242.093482 273.895188 236.698035 M300.395188 268.198035 C303.680588 264.777991 307.715134 265.844519 311.717087 266.110267 C313.335068 266.217810 315.017929 265.347327 316.671250 264.921912 C315.200791 264.013953 313.817124 262.897376 312.241562 262.241980 C309.073838 260.924109 305.541733 260.416663 304.744797 255.976477 C304.497666 254.599768 302.467331 253.543006 301.253403 252.339759 C301.052109 254.043982 300.574936 255.770667 300.712571 257.447181 C300.932175 260.122351 301.764695 262.962561 298.371323 264.168860 C290.092331 267.111609 281.860092 268.707801 273.770310 263.299842 C272.734970 262.607703 270.773972 263.300330 269.241745 263.351477 C270.113877 264.633704 270.697678 266.392859 271.904099 267.121863 C280.819687 272.509925 290.034897 272.856482 300.395188 268.198035 z"/></svg>